HIERARCHY
ROOT Hips
{
    OFFSET 0.000000 0.000000 0.000000
    CHANNELS 6 Xposition Yposition Zposition Zrotation Xrotation Yrotation
    JOINT Spine
    {
        OFFSET -0.000000 7.305680 0.000000
        CHANNELS 3 Zrotation Xrotation Yrotation
        JOINT Spine1
        {
            OFFSET -0.000000 20.356600 0.000000
            CHANNELS 3 Zrotation Xrotation Yrotation
            JOINT Neck
            {
                OFFSET -0.000000 22.138500 0.000000
                CHANNELS 3 Zrotation Xrotation Yrotation
                JOINT Head
                {
                    OFFSET -0.000000 13.809501 1.781870
                    CHANNELS 3 Zrotation Xrotation Yrotation
                    End Site
                    {
                        OFFSET -0.000000 17.818779 0.000000
                    }
                }
            }
            JOINT LeftShoulder
            {
                OFFSET 3.599130 17.990000 0.023591
                CHANNELS 3 Zrotation Xrotation Yrotation
                JOINT LeftArm
                {
                    OFFSET 12.560999 0.000000 0.000000
                    CHANNELS 3 Zrotation Xrotation Yrotation
                    JOINT LeftForeArm
                    {
                        OFFSET 22.903299 0.000000 0.000000
                        CHANNELS 3 Zrotation Xrotation Yrotation
                        JOINT LeftHand
                        {
                            OFFSET 21.865299 0.000000 0.000000
                            CHANNELS 3 Zrotation Xrotation Yrotation
                            JOINT LeftHandThumb1
                            {
                                OFFSET 1.853710 -2.106480 2.949080
                                CHANNELS 3 Zrotation Xrotation Yrotation
                                JOINT LeftHandThumb2
                                {
                                    OFFSET 2.049150 0.000000 1.336400
                                    CHANNELS 3 Zrotation Xrotation Yrotation
                                    JOINT LeftHandThumb3
                                    {
                                        OFFSET 2.672810 0.000000 0.000000
                                        CHANNELS 3 Zrotation Xrotation Yrotation
                                        End Site
                                        {
                                            OFFSET 2.381310 0.000000 0.000000
                                        }
                                    }
                                }
                            }
                            JOINT LeftHandIndex1
                            {
                                OFFSET 7.583340 0.000000 2.949080
                                CHANNELS 3 Zrotation Xrotation Yrotation
                                JOINT LeftHandIndex2
                                {
                                    OFFSET 4.454680 0.000000 0.000000
                                    CHANNELS 3 Zrotation Xrotation Yrotation
                                    JOINT LeftHandIndex3
                                    {
                                        OFFSET 2.227340 0.000000 0.000000
                                        CHANNELS 3 Zrotation Xrotation Yrotation
                                        End Site
                                        {
                                            OFFSET 1.984424 0.000000 0.000000
                                        }
                                    }
                                }
                            }
                            JOINT LeftHandMiddle1
                            {
                                OFFSET 7.583340 0.000000 0.977409
                                CHANNELS 3 Zrotation Xrotation Yrotation
                                JOINT LeftHandMiddle2
                                {
                                    OFFSET 4.900150 0.000000 0.000000
                                    CHANNELS 3 Zrotation Xrotation Yrotation
                                    JOINT LeftHandMiddle3
                                    {
                                        OFFSET 2.672810 0.000000 0.000000
                                        CHANNELS 3 Zrotation Xrotation Yrotation
                                        End Site
                                        {
                                            OFFSET 2.381310 0.000000 0.000000
                                        }
                                    }
                                }
                            }
                            JOINT LeftHandRing1
                            {
                                OFFSET 7.162050 0.000000 -0.977409
                                CHANNELS 3 Zrotation Xrotation Yrotation
                                JOINT LeftHandRing2
                                {
                                    OFFSET 4.454680 0.000000 0.000000
                                    CHANNELS 3 Zrotation Xrotation Yrotation
                                    JOINT LeftHandRing3
                                    {
                                        OFFSET 2.227340 0.000000 0.000000
                                        CHANNELS 3 Zrotation Xrotation Yrotation
                                        End Site
                                        {
                                            OFFSET 1.984424 0.000000 0.000000
                                        }
                                    }
                                }
                            }
                            JOINT LeftHandPinky1
                            {
                                OFFSET 6.740750 0.000000 -2.949080
                                CHANNELS 3 Zrotation Xrotation Yrotation
                                JOINT LeftHandPinky2
                                {
                                    OFFSET 3.563750 0.000000 0.000000
                                    CHANNELS 3 Zrotation Xrotation Yrotation
                                    JOINT LeftHandPinky3
                                    {
                                        OFFSET 1.781870 0.000000 0.000000
                                        CHANNELS 3 Zrotation Xrotation Yrotation
                                        End Site
                                        {
                                            OFFSET 1.587538 0.000000 0.000000
                                        }
                                    }
                                }
                            }
                        }
                    }
                }
            }
            JOINT RightShoulder
            {
                OFFSET -3.506990 17.990000 0.023591
                CHANNELS 3 Zrotation Xrotation Yrotation
                JOINT RightArm
                {
                    OFFSET -12.560999 0.000000 0.000000
                    CHANNELS 3 Zrotation Xrotation Yrotation
                    JOINT RightForeArm
                    {
                        OFFSET -22.903299 0.000000 0.000000
                        CHANNELS 3 Zrotation Xrotation Yrotation
                        JOINT RightHand
                        {
                            OFFSET -21.865299 0.000000 0.000000
                            CHANNELS 3 Zrotation Xrotation Yrotation
                            JOINT RightHandThumb1
                            {
                                OFFSET -1.853710 -2.106480 2.949080
                                CHANNELS 3 Zrotation Xrotation Yrotation
                                JOINT RightHandThumb2
                                {
                                    OFFSET -2.049150 0.000000 1.336400
                                    CHANNELS 3 Zrotation Xrotation Yrotation
                                    JOINT RightHandThumb3
                                    {
                                        OFFSET -2.672810 0.000000 0.000000
                                        CHANNELS 3 Zrotation Xrotation Yrotation
                                        End Site
                                        {
                                            OFFSET -2.381310 0.000000 0.000000
                                        }
                                    }
                                }
                            }
                            JOINT RightHandIndex1
                            {
                                OFFSET -7.583340 0.000000 2.949080
                                CHANNELS 3 Zrotation Xrotation Yrotation
                                JOINT RightHandIndex2
                                {
                                    OFFSET -4.454680 0.000000 0.000000
                                    CHANNELS 3 Zrotation Xrotation Yrotation
                                    JOINT RightHandIndex3
                                    {
                                        OFFSET -2.227340 0.000000 0.000000
                                        CHANNELS 3 Zrotation Xrotation Yrotation
                                        End Site
                                        {
                                            OFFSET -1.984424 0.000000 0.000000
                                        }
                                    }
                                }
                            }
                            JOINT RightHandMiddle1
                            {
                                OFFSET -7.583340 0.000000 0.977409
                                CHANNELS 3 Zrotation Xrotation Yrotation
                                JOINT RightHandMiddle2
                                {
                                    OFFSET -4.900150 0.000000 0.000000
                                    CHANNELS 3 Zrotation Xrotation Yrotation
                                    JOINT RightHandMiddle3
                                    {
                                        OFFSET -2.672810 0.000000 0.000000
                                        CHANNELS 3 Zrotation Xrotation Yrotation
                                        End Site
                                        {
                                            OFFSET -2.381310 0.000000 0.000000
                                        }
                                    }
                                }
                            }
                            JOINT RightHandRing1
                            {
                                OFFSET -7.162050 0.000000 -0.977409
                                CHANNELS 3 Zrotation Xrotation Yrotation
                                JOINT RightHandRing2
                                {
                                    OFFSET -4.454680 0.000000 0.000000
                                    CHANNELS 3 Zrotation Xrotation Yrotation
                                    JOINT RightHandRing3
                                    {
                                        OFFSET -2.227340 0.000000 0.000000
                                        CHANNELS 3 Zrotation Xrotation Yrotation
                                        End Site
                                        {
                                            OFFSET -1.984424 0.000000 0.000000
                                        }
                                    }
                                }
                            }
                            JOINT RightHandPinky1
                            {
                                OFFSET -6.740750 0.000000 -2.949080
                                CHANNELS 3 Zrotation Xrotation Yrotation
                                JOINT RightHandPinky2
                                {
                                    OFFSET -3.563750 0.000000 0.000000
                                    CHANNELS 3 Zrotation Xrotation Yrotation
                                    JOINT RightHandPinky3
                                    {
                                        OFFSET -1.781870 0.000000 0.000000
                                        CHANNELS 3 Zrotation Xrotation Yrotation
                                        End Site
                                        {
                                            OFFSET -1.587538 0.000000 0.000000
                                        }
                                    }
                                }
                            }
                        }
                    }
                }
            }
        }
    }
    JOINT LeftUpLeg
    {
        OFFSET 8.909360 0.000000 0.000000
        CHANNELS 3 Zrotation Xrotation Yrotation
        JOINT LeftLeg
        {
            OFFSET -0.000000 -38.765602 0.000000
            CHANNELS 3 Zrotation Xrotation Yrotation
            JOINT LeftFoot
            {
                OFFSET -0.000000 -35.245003 0.000000
                CHANNELS 3 Zrotation Xrotation Yrotation
                JOINT LeftToeBase
                {
                    OFFSET -0.000000 -5.791090 13.364000
                    CHANNELS 3 Zrotation Xrotation Yrotation
                    End Site
                    {
                        OFFSET -0.000000 0.000000 3.563756
                    }
                }
            }
        }
    }
    JOINT RightUpLeg
    {
        OFFSET -8.909360 0.000000 0.000000
        CHANNELS 3 Zrotation Xrotation Yrotation
        JOINT RightLeg
        {
            OFFSET -0.000000 -38.765602 0.000000
            CHANNELS 3 Zrotation Xrotation Yrotation
            JOINT RightFoot
            {
                OFFSET -0.000000 -35.245003 0.000000
                CHANNELS 3 Zrotation Xrotation Yrotation
                JOINT RightToeBase
                {
                    OFFSET -0.000000 -5.791090 13.364000
                    CHANNELS 3 Zrotation Xrotation Yrotation
                    End Site
                    {
                        OFFSET -0.000000 0.000000 3.563756
                    }
                }
            }
        }
    }
}
MOTION
Frames:    4
Frame Time:    0.033333
-17.984264    76.375763    114.863098    5.890555    -4.916345    -2.023271    -1.838339    8.911038    15.538369    0.869655    5.141511    5.085007    2.628129    -10.961774    -13.577884    3.907223    -2.624538    -14.337564    19.404966    -10.053499    -3.740936    5.764376    -3.497933    -6.413855    16.030176    19.603399    -12.931974    9.785833    -4.388162    22.936792    -9.665080    10.583176    1.908597    -0.000000    0.000000    4.282727    -0.000000    0.000000    8.565453    2.921960    -0.257965    -5.040907    0.000000    0.000000    0.000000    0.000000    0.000000    0.000000    -26.148371    -11.657112    4.158278    -36.299995    0.000000    0.000000    -26.400003    0.000000    0.000000    -55.332401    -26.056610    6.760488    -72.600006    0.000000    0.000000    -52.799992    0.000000    0.000000    -89.999992    -39.999996    0.000000    -110.000000    0.000000    0.000000    -80.000000    0.000000    0.000000    -12.422626    -2.673177    15.817500    103.461159    66.301994    -23.715054    -16.604383    35.094612    9.993015    -14.759164    -18.615133    32.538994    2.886989    3.778541    -4.460431    0.000000    0.000000    -5.660542    0.000000    0.000000    -11.321087    -24.261530    -1.579462    3.499589    0.000000    0.000000    0.000000    0.000000    0.000000    0.000000    -10.027724    -1.257454    -3.443589    12.779416    0.000000    -0.000000    6.389707    0.000000    -0.000000    4.145624    -2.650427    -10.255169    25.558826    0.000000    -0.000000    12.779414    0.000000    -0.000000    18.514154    -5.771516    -16.715046    38.725498    0.000000    -0.000000    19.362749    0.000000    -0.000000    12.538936    1.517311    -0.160863    3.771635    12.240827    17.181068    -27.065382    1.062292    -27.795145    0.553960    -3.037814    -1.845807    -41.363041    -7.700630    -13.356067    25.599117    37.138973    -46.027393    23.471853    12.088187    15.010014    -0.684242    -6.688054    0.398170    
-17.082592    76.828613    114.825752    4.238504    -4.940114    -3.044008    -2.579894    8.601702    15.167334    4.310679    4.483263    4.814730    1.163038    -9.172340    -13.059235    5.020660    -3.308501    -13.920228    18.451187    -8.786491    -3.779322    6.135787    -3.682516    -5.035329    15.717924    19.737253    -12.721012    9.969652    -4.271096    22.737808    -9.673950    10.580915    1.892109    -0.000000    0.000000    4.270985    -0.000000    0.000000    8.541970    2.836694    -0.251165    -5.055725    0.000000    0.000000    0.000000    0.000000    0.000000    0.000000    -26.209030    -11.652439    4.141433    -36.299995    0.000000    0.000000    -26.400003    0.000000    0.000000    -55.366302    -26.051775    6.747518    -72.600006    0.000000    0.000000    -52.799992    0.000000    0.000000    -89.999992    -39.999996    0.000000    -110.000000    0.000000    0.000000    -80.000000    0.000000    0.000000    -11.104051    -0.528993    15.855433    95.158867    64.641068    -21.111187    -22.729107    40.092663    15.590600    -15.094396    -20.947334    34.845634    3.068697    3.761565    -4.324307    0.000000    0.000000    -5.553192    0.000000    0.000000    -11.106384    -24.015507    -1.346182    3.018299    0.000000    0.000000    0.000000    0.000000    0.000000    0.000000    -9.867287    -1.161281    -3.927593    12.770702    0.000000    -0.000000    6.385352    0.000000    -0.000000    4.205641    -2.676912    -10.710929    25.541405    0.000000    -0.000000    12.770701    0.000000    -0.000000    18.460598    -5.901337    -17.118185    38.699100    0.000000    -0.000000    19.349550    0.000000    -0.000000    13.283673    1.638837    -0.383862    3.846039    12.804305    17.184902    -26.599281    0.123088    -26.947031    0.552339    -3.011023    -1.837098    -37.563873    -7.912296    -10.157178    20.407484    35.492321    -41.092014    24.563099    11.470704    14.814511    -0.584432    -6.194493    0.287260    
-16.349154    77.209229    114.805687    2.729687    -4.853172    -3.638582    -3.606087    8.094271    14.486207    8.140164    3.961535    4.454241    -0.536945    -7.077803    -12.440116    6.059688    -4.381874    -13.424551    17.532167    -7.310629    -3.969360    6.420315    -4.229779    -3.585830    15.137831    19.764339    -12.291262    10.034566    -4.131035    22.511395    -9.700495    10.588655    1.866721    -0.000000    0.000000    4.252831    -0.000000    0.000000    8.505662    2.754377    -0.240462    -4.985537    0.000000    0.000000    0.000000    0.000000    0.000000    0.000000    -26.260014    -11.659481    4.185649    -36.299995    0.000000    0.000000    -26.400003    0.000000    0.000000    -55.390781    -26.060574    6.766609    -72.600006    0.000000    0.000000    -52.799992    0.000000    0.000000    -89.999992    -39.999996    0.000000    -110.000000    0.000000    0.000000    -80.000000    0.000000    0.000000    -9.302189    1.995620    15.458005    86.217621    62.996124    -19.194632    -33.346584    44.965366    24.858561    -15.531263    -24.364109    36.117695    3.420661    3.691594    -3.993638    0.000000    0.000000    -5.258692    0.000000    0.000000    -10.517385    -22.958717    -0.999145    2.357112    0.000000    0.000000    0.000000    0.000000    0.000000    0.000000    -8.954676    -1.073151    -4.480756    13.173801    0.000000    -0.000000    6.586899    0.000000    -0.000000    4.949425    -2.795446    -11.101448    26.347603    0.000000    -0.000000    13.173799    0.000000    -0.000000    19.021063    -6.166120    -17.305651    39.920605    0.000000    -0.000000    19.960302    0.000000    -0.000000    14.105395    1.731550    -0.310624    3.933074    12.926040    17.642179    -26.179924    -0.091021    -27.015646    0.548554    -3.017777    -1.828299    -34.045467    -7.471881    -6.489542    16.550060    33.179344    -37.249310    25.361818    9.671751    14.066546    -0.557517    -5.663069    0.301676    
-15.749195    77.456131    114.784203    1.734513    -4.597786    -3.859794    -5.073761    7.433174    13.559351    12.172326    3.494664    4.029947    -2.666955    -4.799541    -11.668873    6.848835    -5.676713    -12.826868    16.778597    -5.581281    -4.188965    6.295556    -4.791376    -2.073401    14.616557    19.556671    -11.906025    10.033918    -4.011901    22.259438    -9.681955    10.579306    1.877939    -0.000000    0.000000    4.265585    -0.000000    0.000000    8.531169    2.769958    -0.238134    -4.909821    0.000000    0.000000    0.000000    0.000000    0.000000    0.000000    -26.242365    -11.670314    4.240985    -36.299995    0.000000    0.000000    -26.400003    0.000000    0.000000    -55.377468    -26.073092    6.796300    -72.600006    0.000000    0.000000    -52.799992    0.000000    0.000000    -89.999992    -39.999996    0.000000    -110.000000    0.000000    0.000000    -80.000000    0.000000    0.000000    -7.601604    4.117679    14.526227    78.015877    61.244358    -17.872065    -46.889977    48.042423    36.416077    -15.386703    -27.762268    35.811127    3.876375    3.534187    -3.442448    0.000000    0.000000    -4.730964    0.000000    0.000000    -9.461927    -21.645296    -0.679785    1.712432    0.000000    0.000000    0.000000    0.000000    0.000000    0.000000    -7.724586    -1.038064    -4.960392    13.871641    0.000000    -0.000000    6.935820    0.000000    -0.000000    6.071468    -2.985662    -11.356175    27.743282    0.000000    -0.000000    13.871638    0.000000    -0.000000    20.026388    -6.513688    -17.287672    42.035271    0.000000    -0.000000    21.017633    0.000000    -0.000000    14.597555    1.647749    -0.112993    4.034456    12.779226    18.335648    -25.860806    0.115494    -27.615158    0.540844    -3.062600    -1.815521    -31.820541    -7.019665    -2.978270    15.358692    30.920408    -36.489349    25.312881    7.884776    12.390749    -0.530269    -5.241453    0.303043    
